<svg id="SvgjsSvg1006" width="1275" height="656" xmlns="http://www.w3.org/2000/svg" version="1.1" xmlns:xlink="http://www.w3.org/1999/xlink" xmlns:svgjs="http://svgjs.com/svgjs"><defs id="SvgjsDefs1007"><marker id="SvgjsMarker1036" markerWidth="14" markerHeight="12" refX="16" refY="6" viewBox="0 0 14 12" orient="auto" markerUnits="userSpaceOnUse" stroke-dasharray="0,0"><path id="SvgjsPath1037" d="M1,1 L14,6 L1,11L1,1" fill="#ffffff" stroke="#388e3c" stroke-width="2"></path></marker><marker id="SvgjsMarker1046" markerWidth="16" markerHeight="12" refX="16" refY="6" viewBox="0 0 16 12" orient="auto" markerUnits="userSpaceOnUse" stroke-dasharray="0,0"><path id="SvgjsPath1047" d="M0,2 L14,6 L0,11 L0,2" fill="#388e3c" stroke="#388e3c" stroke-width="2"></path></marker><marker id="SvgjsMarker1050" markerWidth="16" markerHeight="12" refX="16" refY="6" viewBox="0 0 16 12" orient="auto" markerUnits="userSpaceOnUse" stroke-dasharray="0,0"><path id="SvgjsPath1051" d="M0,2 L14,6 L0,11 L0,2" fill="#388e3c" stroke="#388e3c" stroke-width="2"></path></marker><pattern id="SvgjsPattern1071" x="0" y="0" width="90" height="90.5" patternUnits="userSpaceOnUse"><image id="SvgjsImage1072" xlink:href="https://cdn.processon.com/6127418b5653bb071901c798?e=1629966235&amp;token=trhI0BY8QfVrIGn9nENop6JAc6l5nZuxhjQ62UfM:EKrtGtpfRFRo9n2hqi7GxKLeBsc=" width="90" height="90.5" preserveAspectRatio="none" crossOrigin="anonymous" x="0" y="0"></image></pattern></defs><g id="SvgjsG1008" transform="translate(25.009728385930373,25)"><path id="SvgjsPath1009" d="M 147.00891518737672 424.2C -122.50742932281395 303 49.002971729125576 212.1 110.25668639053254 181.79999999999998C 85.75520052596977 30.3 392.0237738330046 0 514.5312031558185 60.6C 612.5371466140697 -30.3 918.8057199211046 0 918.8057199211046 90.89999999999999C 1163.8205785667324 60.6 1261.8265220249837 181.79999999999998 1163.8205785667324 333.3C 1249.575779092702 454.5 1163.8205785667324 606 882.0534911242603 545.4C 820.7997764628534 624.1800000000001 575.7849178172255 624.1800000000001 514.5312031558185 545.4C 392.0237738330046 606 147.00891518737672 575.6999999999999 147.00891518737672 424.2Z" stroke-dasharray="3,4" stroke="rgba(50,50,50,1)" stroke-width="2" fill-opacity="1" fill="#ffffff"></path><g id="SvgjsG1010"><text id="SvgjsText1011" font-family="微软雅黑" text-anchor="middle" font-size="13px" width="1206px" fill="#323232" font-weight="400" align="middle" lineHeight="125%" anchor="middle" family="微软雅黑" size="13px" weight="400" font-style="" opacity="1" y="293.375" transform="rotate(0)"></text></g></g><g id="SvgjsG1012" transform="translate(801.2030692331173,189)"><path id="SvgjsPath1013" d="M 0 4Q 0 0 4 0L 309.5153046254444 0Q 313.5153046254444 0 313.5153046254444 4L 313.5153046254444 65Q 313.5153046254444 69 309.5153046254444 69L 4 69Q 0 69 0 65Z" stroke="none" fill-opacity="1" fill="#4dd0e1"></path><g id="SvgjsG1014"><text id="SvgjsText1015" font-family="微软雅黑" text-anchor="middle" font-size="13px" width="294px" fill="#ffffff" font-weight="400" align="middle" lineHeight="125%" anchor="middle" family="微软雅黑" size="13px" weight="400" font-style="" opacity="1" y="16.875" transform="rotate(0)"><tspan id="SvgjsTspan1016" dy="16" x="157"><tspan id="SvgjsTspan1017" style="text-decoration:;">下一个区块</tspan></tspan><tspan id="SvgjsTspan1018" dy="16" x="157"><tspan id="SvgjsTspan1019" style="text-decoration:;"> </tspan></tspan></text></g></g><g id="SvgjsG1020" transform="translate(192.7030692331174,119)"><path id="SvgjsPath1021" d="M 0 0L 178 0L 178 55L 0 55Z" stroke="none" fill="none"></path><g id="SvgjsG1022"><text id="SvgjsText1023" font-family="微软雅黑" text-anchor="middle" font-size="15px" width="178px" fill="#e57373" font-weight="700" align="middle" lineHeight="125%" anchor="middle" family="微软雅黑" size="15px" weight="700" font-style="" opacity="1" y="16.625" transform="rotate(0)"><tspan id="SvgjsTspan1024" dy="18" x="89"><tspan id="SvgjsTspan1025" style="text-decoration:;">0. Taiki.set('regtest');</tspan></tspan></text></g></g><g id="SvgjsG1026" transform="translate(199.50034092024924,189)"><path id="SvgjsPath1027" d="M 0 4Q 0 0 4 0L 309.5153046254444 0Q 313.5153046254444 0 313.5153046254444 4L 313.5153046254444 65Q 313.5153046254444 69 309.5153046254444 69L 4 69Q 0 69 0 65Z" stroke="none" fill-opacity="1" fill="#4dd0e1"></path><g id="SvgjsG1028"><text id="SvgjsText1029" font-family="微软雅黑" text-anchor="middle" font-size="13px" width="294px" fill="#ffffff" font-weight="400" align="middle" lineHeight="125%" anchor="middle" family="微软雅黑" size="13px" weight="400" font-style="" opacity="1" y="16.875" transform="rotate(0)"><tspan id="SvgjsTspan1030" dy="16" x="157"><tspan id="SvgjsTspan1031" style="text-decoration:;">1. 创建 【区块】工作对象</tspan></tspan><tspan id="SvgjsTspan1032" dy="16" x="157"><tspan id="SvgjsTspan1033" style="text-decoration:;">通过配置区块的存储方式（内存/文件/数据库）</tspan></tspan></text></g></g><g id="SvgjsG1034"><path id="SvgjsPath1035" d="M513.0156455456937 223.5L657.0498335798818 223.5L657.0498335798818 223.5L801.08402161407 223.5" stroke="#388e3c" stroke-width="2" fill="none" marker-end="url(#SvgjsMarker1036)"></path><rect id="SvgjsRect1038" width="258" height="38" x="528.0498335798818" y="204.5" fill="#ffffff"></rect><text id="SvgjsText1039" font-family="微软雅黑" text-anchor="middle" font-size="15px" width="258px" fill="#388e3c" font-weight="700" align="top" lineHeight="19px" anchor="middle" family="微软雅黑" size="15px" weight="700" font-style="" opacity="1" y="202.625" transform="rotate(0)"><tspan id="SvgjsTspan1040" dy="18" x="657.0498335798818"><tspan id="SvgjsTspan1041" style="text-decoration:;">2. 基于这些区块，创建【链】工作对象</tspan></tspan><tspan id="SvgjsTspan1042" dy="18" x="657.0498335798818"><tspan id="SvgjsTspan1043" style="text-decoration:;">（同时要配置链的类型: 测试/主网等）</tspan></tspan></text></g><g id="SvgjsG1044"><path id="SvgjsPath1045" d="M1114.7183738585618 223.5L1149.9011977363161 223.5L1149.9011977363161 223.5L1185.08402161407 223.5" stroke-dasharray="3,3" stroke="#388e3c" stroke-width="2" fill="none" marker-end="url(#SvgjsMarker1046)"></path></g><g id="SvgjsG1048"><path id="SvgjsPath1049" d="M135.36179939184763 223.5L167.43107015604846 223.5L167.43107015604846 223.5L199.50034092024924 223.5" stroke-dasharray="3,3" stroke="#388e3c" stroke-width="2" fill="none" marker-end="url(#SvgjsMarker1050)"></path></g><g id="SvgjsG1052" transform="matrix(-1.8369701987210297e-16,-1,1,-1.8369701987210297e-16,538.8697509765625,420)"><path id="SvgjsPath1053" d="M 15 0L 88.33333333333333 0C 103.18181818181819 0 103.18181818181819 70 88.33333333333333 70L 15 70C -5 70 -5 0 15 0ZM 88.33333333333333 0C 73.75 0 73.75 70 88.33333333333333 70C 73.75 70 73.75 0 88.33333333333333 0" stroke="rgba(211,47,47,1)" stroke-width="2" fill-opacity="1" fill="#ffcdd2"></path><g id="SvgjsG1054"><text id="SvgjsText1055" font-family="微软雅黑" text-anchor="middle" font-size="13px" width="80px" fill="#323232" font-weight="400" align="middle" lineHeight="125%" anchor="middle" family="微软雅黑" size="13px" weight="400" font-style="" opacity="1" y="25.375" transform="rotate(0)"></text></g></g><g id="SvgjsG1056" transform="matrix(-1.8369701987210297e-16,-1,1,-1.8369701987210297e-16,310.2030784970236,358.0000007266093)"><path id="SvgjsPath1057" d="M 85.00000000000011 0Q 76.5000000000001 0 76.5000000000001 9L 76.5000000000001 252.94047619047637Q 76.5000000000001 261.9404761904764 63.000000000000114 261.9404761904764Q 76.5000000000001 261.9404761904764 76.5000000000001 270.9404761904764L 76.5000000000001 514.8809523809527Q 76.5000000000001 523.8809523809527 85.00000000000011 523.8809523809527" stroke-dasharray="3,4" stroke="rgba(244,67,54,1)" stroke-width="2" fill="none"></path><path id="SvgjsPath1058" d="M 0 0L 85.00000000000011 0L 85.00000000000011 523.8809523809527L 0 523.8809523809527Z" stroke="none" fill="none"></path><g id="SvgjsG1059"><text id="SvgjsText1060" font-family="微软雅黑" text-anchor="end" font-size="13px" width="59px" fill="#323232" font-weight="400" align="middle" lineHeight="125%" anchor="end" family="微软雅黑" size="13px" weight="400" font-style="" opacity="1" y="252.31547619047637" transform="rotate(0)"></text></g></g><g id="SvgjsG1061" transform="translate(301.0840216140699,337)"><path id="SvgjsPath1062" d="M 0 0L 229.8855100804401 0L 229.8855100804401 51L 0 51Z" stroke="none" fill="none"></path><g id="SvgjsG1063"><text id="SvgjsText1064" font-family="微软雅黑" text-anchor="middle" font-size="15px" width="230px" fill="#f44336" font-weight="700" align="middle" lineHeight="125%" anchor="middle" family="微软雅黑" size="15px" weight="700" font-style="" opacity="1" y="5.625" transform="rotate(0)"><tspan id="SvgjsTspan1065" dy="18" x="115"><tspan id="SvgjsTspan1066" style="text-decoration:;">3. 基于这条链（交易/事件等），</tspan></tspan><tspan id="SvgjsTspan1067" dy="18" x="115"><tspan id="SvgjsTspan1068" style="text-decoration:;">创建【交易池】工作对象</tspan></tspan></text></g></g><g id="SvgjsG1069" transform="translate(744.0840216140699,481.142857142856)"><path id="SvgjsPath1070" d="M 0 0L 90 0L 90 90.5L 0 90.5Z" stroke="none" fill="url(#SvgjsPattern1071)"></path></g><g id="SvgjsG1073" transform="translate(832.7030692331173,481.142857142856)"><path id="SvgjsPath1074" d="M 0 0L 223 0L 223 77L 0 77Z" stroke="none" fill="none"></path><g id="SvgjsG1075"><text id="SvgjsText1076" font-family="微软雅黑" text-anchor="middle" font-size="15px" width="223px" fill="#0d47a1" font-weight="700" align="middle" lineHeight="125%" anchor="middle" family="微软雅黑" size="15px" weight="700" font-style="" opacity="1" y="18.625" transform="rotate(0)"><tspan id="SvgjsTspan1077" dy="18" x="111.5"><tspan id="SvgjsTspan1078" style="text-decoration:;">4. 基于该链和交易池，</tspan></tspan><tspan id="SvgjsTspan1079" dy="18" x="111.5"><tspan id="SvgjsTspan1080" style="text-decoration:;">创建【矿工】工作对象</tspan></tspan></text></g></g><g id="SvgjsG1081" transform="matrix(6.123233995736766e-17,1,-1,6.123233995736766e-17,983.0840454101562,439)"><path id="SvgjsPath1082" d="M 0 394Q 6.2 394 6.2 385L 6.2 206Q 6.2 197 22 197Q 6.2 197 6.2 188L 6.2 9Q 6.2 0 0 0" stroke-dasharray="3,4" stroke="rgba(25,118,210,1)" stroke-width="2" fill="none"></path><path id="SvgjsPath1083" d="M 0 0L 62 0L 62 394L 0 394Z" stroke="none" fill="none"></path><g id="SvgjsG1084"><text id="SvgjsText1085" font-family="微软雅黑" text-anchor="start" font-size="13px" width="35px" fill="#323232" font-weight="400" align="middle" lineHeight="125%" anchor="start" family="微软雅黑" size="13px" weight="400" font-style="" opacity="1" y="187.375" transform="rotate(0)"></text></g></g></svg>